0
SECTION
2
ENTITIES
0
LINE
8
L
10
0
20
0
11
297
21
0
0
LINE
8
L
10
297
20
0
11
297
21
210
0
LINE
8
L
10
297
20
210
11
0
21
210
0
LINE
8
L
10
0
20
210
11
0
21
0
0
TEXT
8
T
10
90
20
198
40
6
1
신규 DRL 모듈 조립도
0
LINE
8
L
10
115
20
85
11
195
21
85
0
LINE
8
L
10
195
20
85
11
195
21
145
0
LINE
8
L
10
195
20
145
11
115
21
145
0
LINE
8
L
10
115
20
145
11
115
21
85
0
TEXT
8
T
10
12
20
185
40
4.5
1
NOTE:
0
TEXT
8
T
10
12
20
178
40
4
1
1. 하우징: 개방형 슬림
0
TEXT
8
T
10
12
20
171
40
4
1
2. 벤트 홀: 1 (하부)
0
TEXT
8
T
10
12
20
164
40
4
1
3. 실링: 단일 개스킷
0
TEXT
8
T
10
12
20
157
40
4
1
4. 개스킷 소재: 고무
0
TEXT
8
T
10
12
20
150
40
4
1
5. 커넥터: IP54
0
TEXT
8
T
10
12
20
143
40
4
1
6. 렌즈: 평면
0
TEXT
8
T
10
205
20
96
40
5
1
BOM
0
LINE
8
L
10
205
20
60
11
293
21
60
0
LINE
8
L
10
293
20
60
11
293
21
92
0
LINE
8
L
10
293
20
92
11
205
21
92
0
LINE
8
L
10
205
20
92
11
205
21
60
0
TEXT
8
T
10
207
20
86
40
3
1
품번
0
TEXT
8
T
10
217
20
86
40
3
1
품명
0
TEXT
8
T
10
260
20
86
40
3
1
수량
0
TEXT
8
T
10
270
20
86
40
3
1
재질
0
TEXT
8
T
10
207
20
78
40
3
1
1
0
TEXT
8
T
10
217
20
78
40
3
1
DRL 라이트가이드
0
TEXT
8
T
10
260
20
78
40
3
1
1
0
TEXT
8
T
10
270
20
78
40
3
1
PMMA
0
TEXT
8
T
10
207
20
70
40
3
1
2
0
TEXT
8
T
10
217
20
70
40
3
1
DRL 브라켓
0
TEXT
8
T
10
260
20
70
40
3
1
1
0
TEXT
8
T
10
270
20
70
40
3
1
PA6
0
TEXT
8
T
10
207
20
62
40
3
1
3
0
TEXT
8
T
10
217
20
62
40
3
1
LED 드라이버
0
TEXT
8
T
10
260
20
62
40
3
1
1
0
TEXT
8
T
10
270
20
62
40
3
1
-
0
LINE
8
L
10
150
20
8
11
292
21
8
0
LINE
8
L
10
292
20
8
11
292
21
62
0
LINE
8
L
10
292
20
62
11
150
21
62
0
LINE
8
L
10
150
20
62
11
150
21
8
0
TEXT
8
T
10
153
20
55.5
40
3.6
1
도번: DWG-HL25-D01
0
TEXT
8
T
10
153
20
46.5
40
3.6
1
부품명: DRL 모듈
0
TEXT
8
T
10
153
20
37.5
40
3.6
1
프로젝트: PJ 2029-HL25
0
TEXT
8
T
10
153
20
28.5
40
3.6
1
차종: 준중형 세단 E (신규)
0
TEXT
8
T
10
153
20
19.5
40
3.6
1
시장: 유럽
0
TEXT
8
T
10
153
20
10.5
40
3.6
1
소재: PMMA / PA6
0
ENDSEC
0
EOF
