0
SECTION
2
ENTITIES
0
LINE
8
L
10
0
20
0
11
297
21
0
0
LINE
8
L
10
297
20
0
11
297
21
210
0
LINE
8
L
10
297
20
210
11
0
21
210
0
LINE
8
L
10
0
20
210
11
0
21
0
0
TEXT
8
T
10
90
20
198
40
6
1
신규 안개등 어셈블리 조립도
0
LINE
8
L
10
115
20
85
11
195
21
85
0
LINE
8
L
10
195
20
85
11
195
21
145
0
LINE
8
L
10
195
20
145
11
115
21
145
0
LINE
8
L
10
115
20
145
11
115
21
85
0
TEXT
8
T
10
12
20
185
40
4.5
1
NOTE:
0
TEXT
8
T
10
12
20
178
40
4
1
1. 하우징: 밀폐형
0
TEXT
8
T
10
12
20
171
40
4
1
2. 벤트 홀: 2 (상·하)
0
TEXT
8
T
10
12
20
164
40
4
1
3. 실링: 이중 개스킷
0
TEXT
8
T
10
12
20
157
40
4
1
4. 개스킷 소재: EPDM
0
TEXT
8
T
10
12
20
150
40
4
1
5. 커넥터: IP67
0
TEXT
8
T
10
12
20
143
40
4
1
6. 렌즈: 곡면
0
TEXT
8
T
10
12
20
136
40
4
1
7. 저부 장착 — 침수 IPX7 검토 요
0
TEXT
8
T
10
205
20
112
40
5
1
BOM
0
LINE
8
L
10
205
20
60
11
293
21
60
0
LINE
8
L
10
293
20
60
11
293
21
108
0
LINE
8
L
10
293
20
108
11
205
21
108
0
LINE
8
L
10
205
20
108
11
205
21
60
0
TEXT
8
T
10
207
20
102
40
3
1
품번
0
TEXT
8
T
10
217
20
102
40
3
1
품명
0
TEXT
8
T
10
260
20
102
40
3
1
수량
0
TEXT
8
T
10
270
20
102
40
3
1
재질
0
TEXT
8
T
10
207
20
94
40
3
1
1
0
TEXT
8
T
10
217
20
94
40
3
1
안개등 렌즈
0
TEXT
8
T
10
260
20
94
40
3
1
1
0
TEXT
8
T
10
270
20
94
40
3
1
PC
0
TEXT
8
T
10
207
20
86
40
3
1
2
0
TEXT
8
T
10
217
20
86
40
3
1
안개등 하우징
0
TEXT
8
T
10
260
20
86
40
3
1
1
0
TEXT
8
T
10
270
20
86
40
3
1
PC+ABS
0
TEXT
8
T
10
207
20
78
40
3
1
3
0
TEXT
8
T
10
217
20
78
40
3
1
LED 모듈
0
TEXT
8
T
10
260
20
78
40
3
1
1
0
TEXT
8
T
10
270
20
78
40
3
1
-
0
TEXT
8
T
10
207
20
70
40
3
1
4
0
TEXT
8
T
10
217
20
70
40
3
1
실링 개스킷
0
TEXT
8
T
10
260
20
70
40
3
1
1
0
TEXT
8
T
10
270
20
70
40
3
1
EPDM
0
TEXT
8
T
10
207
20
62
40
3
1
5
0
TEXT
8
T
10
217
20
62
40
3
1
방수벤트
0
TEXT
8
T
10
260
20
62
40
3
1
2
0
TEXT
8
T
10
270
20
62
40
3
1
PTFE 멤브레인
0
LINE
8
L
10
150
20
8
11
292
21
8
0
LINE
8
L
10
292
20
8
11
292
21
62
0
LINE
8
L
10
292
20
62
11
150
21
62
0
LINE
8
L
10
150
20
62
11
150
21
8
0
TEXT
8
T
10
153
20
55.5
40
3.6
1
도번: DWG-HL24-F01
0
TEXT
8
T
10
153
20
46.5
40
3.6
1
부품명: 안개등
0
TEXT
8
T
10
153
20
37.5
40
3.6
1
프로젝트: PJ 2028-HL24
0
TEXT
8
T
10
153
20
28.5
40
3.6
1
차종: 소형 SUV D (신규)
0
TEXT
8
T
10
153
20
19.5
40
3.6
1
시장: 동남아
0
TEXT
8
T
10
153
20
10.5
40
3.6
1
소재: PC / PC+ABS
0
ENDSEC
0
EOF
