0
SECTION
2
ENTITIES
0
LINE
8
FRAME
10
0
20
0
11
420
21
0
0
LINE
8
FRAME
10
420
20
0
11
420
21
297
0
LINE
8
FRAME
10
420
20
297
11
0
21
297
0
LINE
8
FRAME
10
0
20
297
11
0
21
0
0
TEXT
8
FRAME
10
150
20
285
40
7
1
신규 헤드램프 어셈블리 조립도
0
LINE
8
OUTLINE
10
150
20
120
11
150
21
210
0
LINE
8
OUTLINE
10
150
20
210
11
245
21
220
0
LINE
8
OUTLINE
10
150
20
120
11
245
21
110
0
ARC
8
OUTLINE
10
210
20
165
40
75
50
-48
51
48
0
CIRCLE
8
OUTLINE
10
247
20
218
40
3
0
CIRCLE
8
OUTLINE
10
247
20
112
40
3
0
CIRCLE
8
OUTLINE
10
180
20
216
40
4
0
TEXT
8
OUTLINE
10
188
20
214
40
3.6
1
VENT-1 (상부)
0
CIRCLE
8
OUTLINE
10
180
20
114
40
4
0
TEXT
8
OUTLINE
10
188
20
110
40
3.6
1
VENT-2 (하부)
0
LINE
8
OUTLINE
10
175
20
155
11
205
21
155
0
LINE
8
OUTLINE
10
205
20
155
11
205
21
175
0
LINE
8
OUTLINE
10
205
20
175
11
175
21
175
0
LINE
8
OUTLINE
10
175
20
175
11
175
21
155
0
TEXT
8
OUTLINE
10
177
20
162
40
3.6
1
LED
0
LINE
8
OUTLINE
10
175
20
160
11
162
21
160
0
LINE
8
OUTLINE
10
175
20
170
11
162
21
170
0
LINE
8
OUTLINE
10
136
20
150
11
150
21
150
0
LINE
8
OUTLINE
10
150
20
150
11
150
21
166
0
LINE
8
OUTLINE
10
150
20
166
11
136
21
166
0
LINE
8
OUTLINE
10
136
20
166
11
136
21
150
0
TEXT
8
OUTLINE
10
137
20
140
40
3.6
1
CONN IP67
0
TEXT
8
NOTE
10
12
20
262
40
4.5
1
NOTE:
0
TEXT
8
NOTE
10
12
20
254
40
4
1
1. 하우징: 밀폐형 슬림
0
TEXT
8
NOTE
10
12
20
247
40
4
1
2. 벤트 홀: 2 (상·하)
0
TEXT
8
NOTE
10
12
20
240
40
4
1
3. 실링: 이중 개스킷
0
TEXT
8
NOTE
10
12
20
233
40
4
1
4. 개스킷 소재: EPDM
0
TEXT
8
NOTE
10
12
20
226
40
4
1
5. 커넥터: IP67
0
TEXT
8
NOTE
10
12
20
219
40
4
1
6. 렌즈: 곡면
0
TEXT
8
NOTE
10
12
20
212
40
4
1
7. 결로 방지: 벤트 경로 설계 검토 요
0
TEXT
8
BOM
10
278
20
252
40
5
1
BOM
0
LINE
8
BOM
10
278
20
200
11
408
21
200
0
LINE
8
BOM
10
408
20
200
11
408
21
248
0
LINE
8
BOM
10
408
20
248
11
278
21
248
0
LINE
8
BOM
10
278
20
248
11
278
21
200
0
TEXT
8
BOM
10
280
20
242
40
3.6
1
품번
0
TEXT
8
BOM
10
294
20
242
40
3.6
1
품명
0
TEXT
8
BOM
10
354
20
242
40
3.6
1
수량
0
TEXT
8
BOM
10
372
20
242
40
3.6
1
재질
0
TEXT
8
BOM
10
280
20
234
40
3.6
1
1
0
TEXT
8
BOM
10
294
20
234
40
3.6
1
아우터 렌즈
0
TEXT
8
BOM
10
354
20
234
40
3.6
1
1
0
TEXT
8
BOM
10
372
20
234
40
3.6
1
PC
0
TEXT
8
BOM
10
280
20
226
40
3.6
1
2
0
TEXT
8
BOM
10
294
20
226
40
3.6
1
하우징
0
TEXT
8
BOM
10
354
20
226
40
3.6
1
1
0
TEXT
8
BOM
10
372
20
226
40
3.6
1
PC+ABS
0
TEXT
8
BOM
10
280
20
218
40
3.6
1
3
0
TEXT
8
BOM
10
294
20
218
40
3.6
1
LED 모듈
0
TEXT
8
BOM
10
354
20
218
40
3.6
1
2
0
TEXT
8
BOM
10
372
20
218
40
3.6
1
-
0
TEXT
8
BOM
10
280
20
210
40
3.6
1
4
0
TEXT
8
BOM
10
294
20
210
40
3.6
1
실링 개스킷
0
TEXT
8
BOM
10
354
20
210
40
3.6
1
1
0
TEXT
8
BOM
10
372
20
210
40
3.6
1
EPDM
0
TEXT
8
BOM
10
280
20
202
40
3.6
1
5
0
TEXT
8
BOM
10
294
20
202
40
3.6
1
방수벤트
0
TEXT
8
BOM
10
354
20
202
40
3.6
1
2
0
TEXT
8
BOM
10
372
20
202
40
3.6
1
PTFE 멤브레인
0
LINE
8
TITLE
10
262
20
8
11
412
21
8
0
LINE
8
TITLE
10
412
20
8
11
412
21
71
0
LINE
8
TITLE
10
412
20
71
11
262
21
71
0
LINE
8
TITLE
10
262
20
71
11
262
21
8
0
TEXT
8
TITLE
10
265
20
64.5
40
4
1
도번: DWG-HL22-A01
0
LINE
8
TITLE
10
262
20
53
11
412
21
53
0
TEXT
8
TITLE
10
265
20
55.5
40
4
1
부품명: 헤드램프 어셈블리
0
LINE
8
TITLE
10
262
20
44
11
412
21
44
0
TEXT
8
TITLE
10
265
20
46.5
40
4
1
프로젝트: PJ 2027-HL22
0
LINE
8
TITLE
10
262
20
35
11
412
21
35
0
TEXT
8
TITLE
10
265
20
37.5
40
4
1
차종: 중형 SUV A (3세대)
0
LINE
8
TITLE
10
262
20
26
11
412
21
26
0
TEXT
8
TITLE
10
265
20
28.5
40
4
1
시장: 아시아 (동남아 포함)
0
LINE
8
TITLE
10
262
20
17
11
412
21
17
0
TEXT
8
TITLE
10
265
20
19.5
40
4
1
소재: PC+ABS / PC(렌즈)
0
LINE
8
TITLE
10
262
20
8
11
412
21
8
0
TEXT
8
TITLE
10
265
20
10.5
40
4
1
작성: 설계1팀 · 2026-07-06 · Rev.A
0
ENDSEC
0
EOF
