0
SECTION
2
ENTITIES
0
LINE
8
FRAME
10
0
20
0
11
297
21
0
0
LINE
8
FRAME
10
297
20
0
11
297
21
210
0
LINE
8
FRAME
10
297
20
210
11
0
21
210
0
LINE
8
FRAME
10
0
20
210
11
0
21
0
0
TEXT
8
FRAME
10
100
20
198
40
6
1
아우터 렌즈 단품도
0
ARC
8
OUTLINE
10
120
20
100
40
70
50
-55
51
55
0
ARC
8
OUTLINE
10
120
20
100
40
62
50
-52
51
52
0
LINE
8
OUTLINE
10
158
20
42
11
158
21
158
0
TEXT
8
NOTE
10
12
20
185
40
4.5
1
NOTE:
0
TEXT
8
NOTE
10
12
20
178
40
4
1
1. 렌즈: 곡면
0
TEXT
8
NOTE
10
12
20
171
40
4
1
2. 내면 발수 코팅 검토 요
0
TEXT
8
NOTE
10
12
20
164
40
4
1
3. 융착 리브 폭 2.5 유지
0
LINE
8
TITLE
10
140
20
8
11
290
21
8
0
LINE
8
TITLE
10
290
20
8
11
290
21
53
0
LINE
8
TITLE
10
290
20
53
11
140
21
53
0
LINE
8
TITLE
10
140
20
53
11
140
21
8
0
TEXT
8
TITLE
10
143
20
46.5
40
4
1
도번: DWG-HL22-P03
0
LINE
8
TITLE
10
140
20
35
11
290
21
35
0
TEXT
8
TITLE
10
143
20
37.5
40
4
1
부품명: 아우터 렌즈
0
LINE
8
TITLE
10
140
20
26
11
290
21
26
0
TEXT
8
TITLE
10
143
20
28.5
40
4
1
프로젝트: PJ 2027-HL22
0
LINE
8
TITLE
10
140
20
17
11
290
21
17
0
TEXT
8
TITLE
10
143
20
19.5
40
4
1
소재: PC
0
LINE
8
TITLE
10
140
20
8
11
290
21
8
0
TEXT
8
TITLE
10
143
20
10.5
40
4
1
작성: 설계1팀 · 2026-07-06 · Rev.A
0
ENDSEC
0
EOF
